<svg width="28" height="16" viewBox="0 0 28 16" fill="none" xmlns="http://www.w3.org/2000/svg">
<path d="M14 0C10.8401 0 7.97794 0.372364 5.94335 0.958316C4.92602 1.25129 4.11406 1.60322 3.60136 1.95231C3.34504 2.12685 3.16647 2.30155 3.07391 2.43185C2.98134 2.56214 2.97875 2.61673 2.97875 2.64115C2.97875 2.66565 2.98134 2.72023 3.07391 2.85045C3.16647 2.98067 3.34504 3.15544 3.60136 3.32999C4.11406 3.67908 4.92602 4.031 5.94335 4.32398C6.23375 4.40765 6.54277 4.48635 6.8654 4.56084C7.1268 4.27178 7.98977 4.00811 9.2983 3.81749C10.6068 3.62688 12.2746 3.5219 14 3.52153C15.7254 3.52175 17.3935 3.62659 18.7026 3.81709C20.0117 4.00759 20.8754 4.27119 21.1377 4.56023C21.4592 4.48597 21.7672 4.40743 22.0567 4.32398C23.0739 4.031 23.8859 3.67908 24.3986 3.32999C24.655 3.15544 24.8335 2.98075 24.9261 2.85045C25.0187 2.72015 25.0213 2.66557 25.0213 2.64115C25.0213 2.61665 25.0187 2.56207 24.9261 2.43185C24.8335 2.30163 24.655 2.12685 24.3986 1.95231C23.8859 1.60322 23.074 1.25129 22.0567 0.958316C20.0221 0.372364 17.1599 0 14 0ZM2.49821 4.05068L0.0513712 12.3447L0.0490826 12.3515C-0.022164 12.5781 -0.0128291 12.6842 0.0575745 12.8606C0.127978 13.0371 0.302692 13.279 0.605385 13.5245C1.21065 14.0156 2.28339 14.4936 3.63593 14.8674C6.34095 15.6149 10.1739 16 14 16C17.8262 16 21.6591 15.6149 24.3641 14.8674C25.7166 14.4936 26.7894 14.0156 27.3946 13.5246C27.6973 13.279 27.872 13.0372 27.9424 12.8606C28.0128 12.6841 28.0222 12.5781 27.9509 12.3515L27.9486 12.3447L25.5019 4.05068C25.3303 4.23242 25.1329 4.39334 24.9106 4.54469C24.253 4.99246 23.3716 5.35824 22.2963 5.6679C20.1458 6.28723 17.2263 6.66029 14 6.66029C10.7737 6.66029 7.85418 6.28723 5.70371 5.6679C4.62844 5.35824 3.74698 4.99246 3.08944 4.54469C2.86715 4.39334 2.66979 4.23234 2.49821 4.05068Z" fill="#FBFBFB"/>
</svg>
