<svg width="66" height="65" viewBox="0 0 66 65" fill="none" xmlns="http://www.w3.org/2000/svg">
<path d="M25.0509 39.3634C24.4587 38.8951 23.7943 38.6898 23.1295 38.7706L23.1207 38.7719C22.8197 38.8114 22.5294 38.9076 22.2649 39.0555L22.2358 39.0717C21.0071 39.7818 20.3382 41.5565 20.572 43.4877C20.7416 44.9007 21.3772 46.1676 22.2725 46.8767C22.8646 47.3457 23.5299 47.5504 24.1969 47.4684L24.2041 47.4674C24.5051 47.4279 24.7954 47.3317 25.0599 47.1839C26.3109 46.4861 26.993 44.704 26.7595 42.7454C26.5848 41.3371 25.9469 40.0727 25.0509 39.3634ZM23.8821 48.907C22.9242 48.8697 22.0187 48.8341 21.1643 48.3395C18.8033 46.9681 17.3778 46.1405 15.4503 47.2156C13.5228 48.2907 13.4761 49.9394 13.3995 52.6703C13.371 53.6585 12.9243 54.4489 12.4515 55.2866C11.9092 56.2466 11.3488 57.2385 11.5509 58.4626C11.6133 58.9097 11.7601 59.3417 11.9832 59.7351C12.9092 61.3953 14.9364 62.0356 16.5013 61.1627C17.3088 60.7123 18.0098 59.949 18.7515 59.1412C19.4647 58.3644 20.202 57.5615 20.9835 57.1255C21.7651 56.6896 22.8334 56.4855 23.8658 56.2887C24.9401 56.0813 25.9537 55.8882 26.7635 55.4366C28.3262 54.565 28.8443 52.505 27.9184 50.8449C27.6992 50.4489 27.4072 50.0979 27.0584 49.8109C26.1225 48.9949 24.9834 48.9502 23.8821 48.907ZM9.72269 48.282C10.6486 48.6695 11.5473 48.666 12.2533 48.2722C12.3497 48.2184 12.4419 48.1574 12.5292 48.0898C13.8792 47.0487 13.7794 44.7128 12.3001 42.7685C11.6788 41.9508 10.8808 41.3115 10.0566 40.9671C9.13233 40.5805 8.23302 40.585 7.52742 40.9786C7.43105 41.0323 7.33884 41.0933 7.25156 41.1609C5.90156 42.202 6.00136 44.5379 7.48064 46.4822C8.10073 47.2988 8.89816 47.9372 9.72269 48.282ZM17.7295 45.1894C17.8328 45.1506 17.9331 45.1042 18.0295 45.0505C18.736 44.6564 19.2108 43.8939 19.3676 42.9025C19.5071 42.0201 19.3811 41.0072 19.0135 40.0486C18.137 37.7693 16.202 36.4569 14.6063 37.0575C14.5029 37.0963 14.4027 37.1427 14.3063 37.1965C13.6012 37.5909 13.1248 38.3537 12.9681 39.3432C12.8279 40.2255 12.9526 41.2403 13.3228 42.1993C14.1993 44.4786 16.1343 45.7909 17.7295 45.1894ZM11.0648 54.7959L11.0699 54.79C11.4893 54.2661 11.6645 53.5932 11.5763 52.8438C11.4424 51.7075 10.6997 50.5022 9.58755 49.6149C8.04806 48.3872 6.17364 48.0304 4.92395 48.7274C4.6591 48.8746 4.4247 49.0711 4.23299 49.3065L4.22791 49.3124C3.80889 49.8337 3.63471 50.5084 3.72287 51.2579C3.85677 52.3941 4.59945 53.5995 5.71164 54.4867C7.25113 55.7145 9.12556 56.0712 10.3752 55.3742C10.6395 55.2271 10.8735 55.0309 11.0648 54.7959Z" fill="#F87A2C"/>
<path d="M30.0509 6.36335C29.4587 5.89507 28.7943 5.68984 28.1295 5.77059L28.1207 5.77188C27.8197 5.81139 27.5294 5.90758 27.2649 6.05546L27.2358 6.0717C26.0071 6.78181 25.3382 8.55651 25.572 10.4877C25.7416 11.9007 26.3772 13.1676 27.2725 13.8767C27.8646 14.3457 28.5299 14.5504 29.1969 14.4684L29.2041 14.4674C29.5051 14.4279 29.7954 14.3317 30.0599 14.1839C31.3109 13.4861 31.993 11.704 31.7595 9.74543C31.5848 8.33712 30.9469 7.07268 30.0509 6.36335ZM28.8821 15.907C27.9242 15.8697 27.0187 15.8341 26.1643 15.3395C23.8033 13.9681 22.3778 13.1405 20.4503 14.2156C18.5228 15.2907 18.4761 16.9394 18.3995 19.6703C18.371 20.6585 17.9243 21.4489 17.4515 22.2866C16.9092 23.2466 16.3488 24.2385 16.5509 25.4626C16.6133 25.9097 16.7601 26.3417 16.9832 26.7351C17.9092 28.3953 19.9364 29.0356 21.5013 28.1627C22.3088 27.7123 23.0098 26.949 23.7515 26.1412C24.4647 25.3644 25.202 24.5615 25.9835 24.1255C26.7651 23.6896 27.8334 23.4855 28.8658 23.2887C29.9401 23.0813 30.9537 22.8882 31.7635 22.4366C33.3262 21.565 33.8443 19.505 32.9184 17.8449C32.6992 17.4489 32.4072 17.0979 32.0584 16.8109C31.1225 15.9949 29.9834 15.9502 28.8821 15.907ZM14.7227 15.282C15.6486 15.6695 16.5473 15.666 17.2533 15.2722C17.3497 15.2184 17.4419 15.1574 17.5292 15.0898C18.8792 14.0487 18.7794 11.7128 17.3001 9.76851C16.6788 8.95076 15.8808 8.31145 15.0566 7.96714C14.1323 7.58051 13.233 7.58502 12.5274 7.97857C12.4311 8.03235 12.3388 8.09329 12.2516 8.16089C10.9016 9.20205 11.0014 11.5379 12.4806 13.4822C13.1007 14.2988 13.8982 14.9372 14.7227 15.282ZM22.7295 12.1894C22.8328 12.1506 22.9331 12.1042 23.0295 12.0505C23.736 11.6564 24.2108 10.8939 24.3676 9.90252C24.5071 9.02009 24.3811 8.00718 24.0135 7.04856C23.137 4.76925 21.202 3.45694 19.6063 4.05755C19.5029 4.09629 19.4027 4.14272 19.3063 4.19646C18.6012 4.59093 18.1248 5.35371 17.9681 6.34323C17.8279 7.22546 17.9526 8.2403 18.3228 9.19929C19.1993 11.4786 21.1343 12.7909 22.7295 12.1894ZM16.0648 21.7959L16.0699 21.79C16.4893 21.2661 16.6645 20.5932 16.5763 19.8438C16.4424 18.7075 15.6997 17.5022 14.5876 16.6149C13.0481 15.3872 11.1736 15.0304 9.92395 15.7274C9.6591 15.8746 9.4247 16.0711 9.23299 16.3065L9.22791 16.3124C8.80889 16.8337 8.63471 17.5084 8.72287 18.2579C8.85677 19.3941 9.59945 20.5995 10.7116 21.4867C12.2511 22.7145 14.1256 23.0712 15.3752 22.3742C15.6395 22.2271 15.8735 22.0309 16.0648 21.7959Z" fill="#F87A2C"/>
<path d="M58.0509 26.3634C57.4587 25.8951 56.7943 25.6898 56.1295 25.7706L56.1207 25.7719C55.8197 25.8114 55.5294 25.9076 55.2649 26.0555L55.2358 26.0717C54.0071 26.7818 53.3382 28.5565 53.572 30.4877C53.7416 31.9007 54.3772 33.1676 55.2725 33.8767C55.8646 34.3457 56.5299 34.5504 57.1969 34.4684L57.2041 34.4674C57.5051 34.4279 57.7954 34.3317 58.0599 34.1839C59.3109 33.4861 59.993 31.704 59.7595 29.7454C59.5848 28.3371 58.9469 27.0727 58.0509 26.3634ZM56.8821 35.907C55.9242 35.8697 55.0187 35.8341 54.1643 35.3395C51.8033 33.9681 50.3778 33.1405 48.4503 34.2156C46.5228 35.2907 46.4761 36.9394 46.3995 39.6703C46.371 40.6585 45.9243 41.4489 45.4515 42.2866C44.9092 43.2466 44.3488 44.2385 44.5509 45.4626C44.6133 45.9097 44.7601 46.3417 44.9832 46.7351C45.9092 48.3953 47.9364 49.0356 49.5013 48.1627C50.3088 47.7123 51.0098 46.949 51.7515 46.1412C52.4647 45.3644 53.202 44.5615 53.9835 44.1255C54.7651 43.6896 55.8334 43.4855 56.8658 43.2887C57.9401 43.0813 58.9537 42.8882 59.7635 42.4366C61.3262 41.565 61.8443 39.505 60.9184 37.8449C60.6992 37.4489 60.4072 37.0979 60.0584 36.8109C59.1225 35.9949 57.9834 35.9502 56.8821 35.907ZM42.7227 35.282C43.6486 35.6695 44.5473 35.666 45.2533 35.2722C45.3497 35.2184 45.4419 35.1574 45.5292 35.0898C46.8792 34.0487 46.7794 31.7128 45.3001 29.7685C44.6788 28.9508 43.8808 28.3115 43.0566 27.9671C42.1323 27.5805 41.233 27.585 40.5274 27.9786C40.4311 28.0323 40.3388 28.0933 40.2516 28.1609C38.9016 29.202 39.0014 31.5379 40.4806 33.4822C41.1007 34.2988 41.8982 34.9372 42.7227 35.282ZM50.7295 32.1894C50.8328 32.1506 50.9331 32.1042 51.0295 32.0505C51.736 31.6564 52.2108 30.8939 52.3676 29.9025C52.5071 29.0201 52.3811 28.0072 52.0135 27.0486C51.137 24.7693 49.202 23.4569 47.6063 24.0575C47.5029 24.0963 47.4027 24.1427 47.3063 24.1965C46.6012 24.5909 46.1248 25.3537 45.9681 26.3432C45.8279 27.2255 45.9526 28.2403 46.3228 29.1993C47.1993 31.4786 49.1343 32.7909 50.7295 32.1894ZM44.0648 41.7959L44.0699 41.79C44.4893 41.2661 44.6645 40.5932 44.5763 39.8438C44.4424 38.7075 43.6997 37.5022 42.5876 36.6149C41.0481 35.3872 39.1736 35.0304 37.924 35.7274C37.6591 35.8746 37.4247 36.0711 37.233 36.3065L37.2279 36.3124C36.8089 36.8337 36.6347 37.5084 36.7229 38.2579C36.8568 39.3941 37.5994 40.5995 38.7116 41.4867C40.2511 42.7145 42.1256 43.0712 43.3752 42.3742C43.6395 42.2271 43.8735 42.0309 44.0648 41.7959Z" fill="#F87A2C"/>
</svg>
